%TF.GenerationSoftware,KiCad,Pcbnew,9.0.8*%
%TF.CreationDate,2026-06-13T16:49:32+08:00*%
%TF.ProjectId,Untitled,556e7469-746c-4656-942e-6b696361645f,rev?*%
%TF.SameCoordinates,Original*%
%TF.FileFunction,Drillmap*%
%TF.FilePolarity,Positive*%
%FSLAX45Y45*%
G04 Gerber Fmt 4.5, Leading zero omitted, Abs format (unit mm)*
G04 Created by KiCad (PCBNEW 9.0.8) date 2026-06-13 16:49:32*
%MOMM*%
%LPD*%
G01*
G04 APERTURE LIST*
%ADD10C,0.050000*%
%ADD11C,0.200000*%
G04 APERTURE END LIST*
D10*
X13662500Y-5624000D02*
X16837500Y-5624000D01*
X16837500Y-9150000D01*
X13662500Y-9150000D01*
X13662500Y-5624000D01*
D11*
X13920777Y-9463984D02*
X13920777Y-9263984D01*
X13920777Y-9263984D02*
X13968396Y-9263984D01*
X13968396Y-9263984D02*
X13996967Y-9273508D01*
X13996967Y-9273508D02*
X14016015Y-9292555D01*
X14016015Y-9292555D02*
X14025539Y-9311603D01*
X14025539Y-9311603D02*
X14035062Y-9349698D01*
X14035062Y-9349698D02*
X14035062Y-9378270D01*
X14035062Y-9378270D02*
X14025539Y-9416365D01*
X14025539Y-9416365D02*
X14016015Y-9435412D01*
X14016015Y-9435412D02*
X13996967Y-9454460D01*
X13996967Y-9454460D02*
X13968396Y-9463984D01*
X13968396Y-9463984D02*
X13920777Y-9463984D01*
X14120777Y-9463984D02*
X14120777Y-9330650D01*
X14120777Y-9368746D02*
X14130301Y-9349698D01*
X14130301Y-9349698D02*
X14139824Y-9340174D01*
X14139824Y-9340174D02*
X14158872Y-9330650D01*
X14158872Y-9330650D02*
X14177920Y-9330650D01*
X14244586Y-9463984D02*
X14244586Y-9330650D01*
X14244586Y-9263984D02*
X14235062Y-9273508D01*
X14235062Y-9273508D02*
X14244586Y-9283031D01*
X14244586Y-9283031D02*
X14254110Y-9273508D01*
X14254110Y-9273508D02*
X14244586Y-9263984D01*
X14244586Y-9263984D02*
X14244586Y-9283031D01*
X14368396Y-9463984D02*
X14349348Y-9454460D01*
X14349348Y-9454460D02*
X14339824Y-9435412D01*
X14339824Y-9435412D02*
X14339824Y-9263984D01*
X14473158Y-9463984D02*
X14454110Y-9454460D01*
X14454110Y-9454460D02*
X14444586Y-9435412D01*
X14444586Y-9435412D02*
X14444586Y-9263984D01*
X14701729Y-9463984D02*
X14701729Y-9263984D01*
X14701729Y-9263984D02*
X14768396Y-9406841D01*
X14768396Y-9406841D02*
X14835062Y-9263984D01*
X14835062Y-9263984D02*
X14835062Y-9463984D01*
X15016015Y-9463984D02*
X15016015Y-9359222D01*
X15016015Y-9359222D02*
X15006491Y-9340174D01*
X15006491Y-9340174D02*
X14987443Y-9330650D01*
X14987443Y-9330650D02*
X14949348Y-9330650D01*
X14949348Y-9330650D02*
X14930301Y-9340174D01*
X15016015Y-9454460D02*
X14996967Y-9463984D01*
X14996967Y-9463984D02*
X14949348Y-9463984D01*
X14949348Y-9463984D02*
X14930301Y-9454460D01*
X14930301Y-9454460D02*
X14920777Y-9435412D01*
X14920777Y-9435412D02*
X14920777Y-9416365D01*
X14920777Y-9416365D02*
X14930301Y-9397317D01*
X14930301Y-9397317D02*
X14949348Y-9387793D01*
X14949348Y-9387793D02*
X14996967Y-9387793D01*
X14996967Y-9387793D02*
X15016015Y-9378270D01*
X15111253Y-9330650D02*
X15111253Y-9530650D01*
X15111253Y-9340174D02*
X15130301Y-9330650D01*
X15130301Y-9330650D02*
X15168396Y-9330650D01*
X15168396Y-9330650D02*
X15187443Y-9340174D01*
X15187443Y-9340174D02*
X15196967Y-9349698D01*
X15196967Y-9349698D02*
X15206491Y-9368746D01*
X15206491Y-9368746D02*
X15206491Y-9425889D01*
X15206491Y-9425889D02*
X15196967Y-9444936D01*
X15196967Y-9444936D02*
X15187443Y-9454460D01*
X15187443Y-9454460D02*
X15168396Y-9463984D01*
X15168396Y-9463984D02*
X15130301Y-9463984D01*
X15130301Y-9463984D02*
X15111253Y-9454460D01*
X15292205Y-9444936D02*
X15301729Y-9454460D01*
X15301729Y-9454460D02*
X15292205Y-9463984D01*
X15292205Y-9463984D02*
X15282682Y-9454460D01*
X15282682Y-9454460D02*
X15292205Y-9444936D01*
X15292205Y-9444936D02*
X15292205Y-9463984D01*
X15292205Y-9340174D02*
X15301729Y-9349698D01*
X15301729Y-9349698D02*
X15292205Y-9359222D01*
X15292205Y-9359222D02*
X15282682Y-9349698D01*
X15282682Y-9349698D02*
X15292205Y-9340174D01*
X15292205Y-9340174D02*
X15292205Y-9359222D01*
M02*
