M48
; DRILL file {KiCad 9.0.8} date 2026-06-13T16:49:32+0800
; FORMAT={-:-/ absolute / metric / decimal}
; #@! TF.CreationDate,2026-06-13T16:49:32+08:00
; #@! TF.GenerationSoftware,Kicad,Pcbnew,9.0.8
; #@! TF.FileFunction,Plated,1,2,PTH
FMAT,2
METRIC
; #@! TA.AperFunction,Plated,PTH,ViaDrill
T1C0.300
; #@! TA.AperFunction,Plated,PTH,ComponentDrill
T2C0.889
; #@! TA.AperFunction,Plated,PTH,ComponentDrill
T3C1.200
%
G90
G05
T1
X149.676Y-83.736
X153.486Y-83.5
T2
X145.481Y-59.154
X145.481Y-61.694
X145.481Y-64.234
X145.481Y-66.775
X145.481Y-69.314
X145.481Y-71.855
X145.481Y-74.394
X160.721Y-59.154
X160.721Y-61.694
X160.721Y-64.234
X160.721Y-66.775
X160.721Y-69.314
X160.721Y-71.855
X160.721Y-74.394
T3
X142.0Y-83.5
X145.5Y-83.5
X159.5Y-83.5
X163.0Y-83.5
M30
