G04 #@! TF.GenerationSoftware,KiCad,Pcbnew,9.0.8*
G04 #@! TF.CreationDate,2026-06-13T16:49:32+08:00*
G04 #@! TF.ProjectId,Untitled,556e7469-746c-4656-942e-6b696361645f,rev?*
G04 #@! TF.SameCoordinates,Original*
G04 #@! TF.FileFunction,Copper,L1,Top*
G04 #@! TF.FilePolarity,Positive*
%FSLAX46Y46*%
G04 Gerber Fmt 4.6, Leading zero omitted, Abs format (unit mm)*
G04 Created by KiCad (PCBNEW 9.0.8) date 2026-06-13 16:49:32*
%MOMM*%
%LPD*%
G01*
G04 APERTURE LIST*
G04 Aperture macros list*
%AMRoundRect*
0 Rectangle with rounded corners*
0 $1 Rounding radius*
0 $2 $3 $4 $5 $6 $7 $8 $9 X,Y pos of 4 corners*
0 Add a 4 corners polygon primitive as box body*
4,1,4,$2,$3,$4,$5,$6,$7,$8,$9,$2,$3,0*
0 Add four circle primitives for the rounded corners*
1,1,$1+$1,$2,$3*
1,1,$1+$1,$4,$5*
1,1,$1+$1,$6,$7*
1,1,$1+$1,$8,$9*
0 Add four rect primitives between the rounded corners*
20,1,$1+$1,$2,$3,$4,$5,0*
20,1,$1+$1,$4,$5,$6,$7,0*
20,1,$1+$1,$6,$7,$8,$9,0*
20,1,$1+$1,$8,$9,$2,$3,0*%
G04 Aperture macros list end*
G04 #@! TA.AperFunction,ComponentPad*
%ADD10RoundRect,0.250001X-0.949999X-0.949999X0.949999X-0.949999X0.949999X0.949999X-0.949999X0.949999X0*%
G04 #@! TD*
G04 #@! TA.AperFunction,ComponentPad*
%ADD11C,2.400000*%
G04 #@! TD*
G04 #@! TA.AperFunction,SMDPad,CuDef*
%ADD12RoundRect,0.140000X-0.140000X-0.170000X0.140000X-0.170000X0.140000X0.170000X-0.140000X0.170000X0*%
G04 #@! TD*
G04 #@! TA.AperFunction,SMDPad,CuDef*
%ADD13RoundRect,0.060000X-0.675000X-0.180000X0.675000X-0.180000X0.675000X0.180000X-0.675000X0.180000X0*%
G04 #@! TD*
G04 #@! TA.AperFunction,SMDPad,CuDef*
%ADD14R,1.425000X1.760000*%
G04 #@! TD*
G04 #@! TA.AperFunction,SMDPad,CuDef*
%ADD15RoundRect,0.250000X-0.250000X-0.475000X0.250000X-0.475000X0.250000X0.475000X-0.250000X0.475000X0*%
G04 #@! TD*
G04 #@! TA.AperFunction,SMDPad,CuDef*
%ADD16RoundRect,0.152400X1.063600X0.609600X-1.063600X0.609600X-1.063600X-0.609600X1.063600X-0.609600X0*%
G04 #@! TD*
G04 #@! TA.AperFunction,ComponentPad*
%ADD17C,1.524000*%
G04 #@! TD*
G04 #@! TA.AperFunction,SMDPad,CuDef*
%ADD18RoundRect,0.152400X-1.063600X-0.609600X1.063600X-0.609600X1.063600X0.609600X-1.063600X0.609600X0*%
G04 #@! TD*
G04 #@! TA.AperFunction,ViaPad*
%ADD19C,0.600000*%
G04 #@! TD*
G04 #@! TA.AperFunction,Conductor*
%ADD20C,0.200000*%
G04 #@! TD*
G04 APERTURE END LIST*
D10*
G04 #@! TO.P,J1,1,Pin_1*
G04 #@! TO.N,Net-(J1-Pin_1)*
X142000000Y-83500000D03*
D11*
G04 #@! TO.P,J1,2,Pin_2*
G04 #@! TO.N,Net-(J1-Pin_2)*
X145500000Y-83500000D03*
G04 #@! TD*
D10*
G04 #@! TO.P,SW1,1,1*
G04 #@! TO.N,GND*
X159500000Y-83500000D03*
D11*
G04 #@! TO.P,SW1,2,2*
G04 #@! TO.N,Net-(U1-GPIO26{slash}ADC0{slash}A0)*
X163000000Y-83500000D03*
G04 #@! TD*
D12*
G04 #@! TO.P,C2,1*
G04 #@! TO.N,GND*
X153980000Y-88080000D03*
G04 #@! TO.P,C2,2*
G04 #@! TO.N,VBUS*
X154940000Y-88080000D03*
G04 #@! TD*
D13*
G04 #@! TO.P,U2,1,~{SHDN}*
G04 #@! TO.N,VBUS*
X150350000Y-81025000D03*
G04 #@! TO.P,U2,2*
G04 #@! TO.N,N/C*
X150350000Y-81675000D03*
G04 #@! TO.P,U2,3,IN+*
G04 #@! TO.N,Net-(U1-GPIO27{slash}ADC1{slash}A1)*
X150350000Y-82325000D03*
G04 #@! TO.P,U2,4,IN-*
G04 #@! TO.N,GND*
X150350000Y-82975000D03*
G04 #@! TO.P,U2,5,VO+*
G04 #@! TO.N,Net-(J1-Pin_1)*
X154650000Y-82975000D03*
G04 #@! TO.P,U2,6,VDD*
G04 #@! TO.N,VBUS*
X154650000Y-82325000D03*
G04 #@! TO.P,U2,7,GND*
G04 #@! TO.N,GND*
X154650000Y-81675000D03*
G04 #@! TO.P,U2,8,VO-*
G04 #@! TO.N,Net-(J1-Pin_2)*
X154650000Y-81025000D03*
D14*
G04 #@! TO.P,U2,9,THERMALPAD*
G04 #@! TO.N,GND*
X152500000Y-82000000D03*
G04 #@! TD*
D15*
G04 #@! TO.P,C1,1*
G04 #@! TO.N,GND*
X154300000Y-85590000D03*
G04 #@! TO.P,C1,2*
G04 #@! TO.N,VBUS*
X156200000Y-85590000D03*
G04 #@! TD*
D16*
G04 #@! TO.P,U1,1,GPIO26/ADC0/A0*
G04 #@! TO.N,Net-(U1-GPIO26{slash}ADC0{slash}A0)*
X144646000Y-59154500D03*
D17*
X145481000Y-59154500D03*
D16*
G04 #@! TO.P,U1,2,GPIO27/ADC1/A1*
G04 #@! TO.N,Net-(U1-GPIO27{slash}ADC1{slash}A1)*
X144646000Y-61694500D03*
D17*
X145481000Y-61694500D03*
D16*
G04 #@! TO.P,U1,3,GPIO28/ADC2/A2*
G04 #@! TO.N,unconnected-(U1-GPIO28{slash}ADC2{slash}A2-Pad3)_1*
X144646000Y-64234500D03*
D17*
G04 #@! TO.N,unconnected-(U1-GPIO28{slash}ADC2{slash}A2-Pad3)*
X145481000Y-64234500D03*
D16*
G04 #@! TO.P,U1,4,GPIO29/ADC3/A3*
G04 #@! TO.N,unconnected-(U1-GPIO29{slash}ADC3{slash}A3-Pad4)*
X144646000Y-66774500D03*
D17*
G04 #@! TO.N,unconnected-(U1-GPIO29{slash}ADC3{slash}A3-Pad4)_1*
X145481000Y-66774500D03*
D16*
G04 #@! TO.P,U1,5,GPIO6/SDA*
G04 #@! TO.N,unconnected-(U1-GPIO6{slash}SDA-Pad5)_1*
X144646000Y-69314500D03*
D17*
G04 #@! TO.N,unconnected-(U1-GPIO6{slash}SDA-Pad5)*
X145481000Y-69314500D03*
D16*
G04 #@! TO.P,U1,6,GPIO7/SCL*
G04 #@! TO.N,unconnected-(U1-GPIO7{slash}SCL-Pad6)*
X144646000Y-71854500D03*
D17*
G04 #@! TO.N,unconnected-(U1-GPIO7{slash}SCL-Pad6)_1*
X145481000Y-71854500D03*
D16*
G04 #@! TO.P,U1,7,GPIO0/TX*
G04 #@! TO.N,unconnected-(U1-GPIO0{slash}TX-Pad7)_1*
X144646000Y-74394500D03*
D17*
G04 #@! TO.N,unconnected-(U1-GPIO0{slash}TX-Pad7)*
X145481000Y-74394500D03*
G04 #@! TO.P,U1,8,GPIO1/RX*
G04 #@! TO.N,unconnected-(U1-GPIO1{slash}RX-Pad8)_1*
X160721000Y-74394500D03*
D18*
G04 #@! TO.N,unconnected-(U1-GPIO1{slash}RX-Pad8)*
X161556000Y-74394500D03*
D17*
G04 #@! TO.P,U1,9,GPIO2/SCK*
G04 #@! TO.N,unconnected-(U1-GPIO2{slash}SCK-Pad9)_1*
X160721000Y-71854500D03*
D18*
G04 #@! TO.N,unconnected-(U1-GPIO2{slash}SCK-Pad9)*
X161556000Y-71854500D03*
D17*
G04 #@! TO.P,U1,10,GPIO4/MISO*
G04 #@! TO.N,unconnected-(U1-GPIO4{slash}MISO-Pad10)*
X160721000Y-69314500D03*
D18*
G04 #@! TO.N,unconnected-(U1-GPIO4{slash}MISO-Pad10)_1*
X161556000Y-69314500D03*
D17*
G04 #@! TO.P,U1,11,GPIO3/MOSI*
G04 #@! TO.N,unconnected-(U1-GPIO3{slash}MOSI-Pad11)*
X160721000Y-66774500D03*
D18*
G04 #@! TO.N,unconnected-(U1-GPIO3{slash}MOSI-Pad11)_1*
X161556000Y-66774500D03*
D17*
G04 #@! TO.P,U1,12,3V3*
G04 #@! TO.N,unconnected-(U1-3V3-Pad12)*
X160721000Y-64234500D03*
D18*
G04 #@! TO.N,unconnected-(U1-3V3-Pad12)_1*
X161556000Y-64234500D03*
D17*
G04 #@! TO.P,U1,13,GND*
G04 #@! TO.N,GND*
X160721000Y-61694500D03*
D18*
X161556000Y-61694500D03*
D17*
G04 #@! TO.P,U1,14,VBUS*
G04 #@! TO.N,VBUS*
X160721000Y-59154500D03*
D18*
X161556000Y-59154500D03*
G04 #@! TD*
D19*
G04 #@! TO.N,Net-(J1-Pin_1)*
X153485900Y-83500000D03*
G04 #@! TO.N,Net-(U1-GPIO27{slash}ADC1{slash}A1)*
X149676200Y-83736100D03*
G04 #@! TD*
D20*
G04 #@! TO.N,Net-(J1-Pin_1)*
X154125000Y-83500000D02*
X153485900Y-83500000D01*
X154650000Y-82975000D02*
X154125000Y-83500000D01*
G04 #@! TO.N,Net-(J1-Pin_2)*
X148545900Y-80454100D02*
X154079100Y-80454100D01*
X145500000Y-83500000D02*
X148545900Y-80454100D01*
X154079100Y-80454100D02*
X154650000Y-81025000D01*
G04 #@! TO.N,GND*
X152500000Y-82000000D02*
X152871700Y-82000000D01*
X151485800Y-82609400D02*
X151485800Y-82000000D01*
X151120200Y-82975000D02*
X151485800Y-82609400D01*
X153514200Y-82000000D02*
X153839200Y-81675000D01*
X152871700Y-82000000D02*
X152871700Y-84161700D01*
X152500000Y-82000000D02*
X151485800Y-82000000D01*
X150350000Y-82975000D02*
X151120200Y-82975000D01*
X157675000Y-64740500D02*
X157675000Y-81675000D01*
X152871700Y-84161700D02*
X154300000Y-85590000D01*
X157675000Y-81675000D02*
X159500000Y-83500000D01*
X154300000Y-85590000D02*
X154300000Y-87760000D01*
X161556000Y-61694500D02*
X160721000Y-61694500D01*
X154300000Y-87760000D02*
X153980000Y-88080000D01*
X154650000Y-81675000D02*
X157675000Y-81675000D01*
X153839200Y-81675000D02*
X154650000Y-81675000D01*
X152871700Y-82000000D02*
X153514200Y-82000000D01*
X160721000Y-61694500D02*
X157675000Y-64740500D01*
G04 #@! TO.N,Net-(U1-GPIO26{slash}ADC0{slash}A0)*
X145481000Y-59154500D02*
X144646000Y-59154500D01*
G04 #@! TO.N,Net-(U1-GPIO27{slash}ADC1{slash}A1)*
X149253400Y-83313300D02*
X149253400Y-82704700D01*
X145481000Y-61694500D02*
X144646000Y-61694500D01*
X149253400Y-82704700D02*
X149633100Y-82325000D01*
X149676200Y-83736100D02*
X149253400Y-83313300D01*
X149633100Y-82325000D02*
X150350000Y-82325000D01*
G04 #@! TO.N,VBUS*
X148851700Y-83946800D02*
X153634100Y-88729200D01*
X156200000Y-86820000D02*
X154940000Y-88080000D01*
X148851700Y-81792200D02*
X148851700Y-83946800D01*
X149618900Y-81025000D02*
X148851700Y-81792200D01*
X161010100Y-84726100D02*
X160146200Y-85590000D01*
X161010100Y-83270200D02*
X161010100Y-84726100D01*
X161556000Y-59154500D02*
X160721000Y-59154500D01*
X150350000Y-81025000D02*
X149618900Y-81025000D01*
X161556000Y-59154500D02*
X163110200Y-60708700D01*
X154650000Y-82325000D02*
X155426600Y-82325000D01*
X163110200Y-81170100D02*
X161010100Y-83270200D01*
X156200000Y-85590000D02*
X156200000Y-86820000D01*
X160146200Y-85590000D02*
X156200000Y-85590000D01*
X163110200Y-60708700D02*
X163110200Y-81170100D01*
X156200000Y-83098400D02*
X156200000Y-85590000D01*
X153634100Y-88729200D02*
X154290800Y-88729200D01*
X155426600Y-82325000D02*
X156200000Y-83098400D01*
X154290800Y-88729200D02*
X154940000Y-88080000D01*
G04 #@! TD*
M02*
