G04 #@! TF.GenerationSoftware,KiCad,Pcbnew,9.0.8*
G04 #@! TF.CreationDate,2026-06-13T16:49:32+08:00*
G04 #@! TF.ProjectId,Untitled,556e7469-746c-4656-942e-6b696361645f,rev?*
G04 #@! TF.SameCoordinates,Original*
G04 #@! TF.FileFunction,Copper,L2,Bot*
G04 #@! TF.FilePolarity,Positive*
%FSLAX46Y46*%
G04 Gerber Fmt 4.6, Leading zero omitted, Abs format (unit mm)*
G04 Created by KiCad (PCBNEW 9.0.8) date 2026-06-13 16:49:32*
%MOMM*%
%LPD*%
G01*
G04 APERTURE LIST*
G04 Aperture macros list*
%AMRoundRect*
0 Rectangle with rounded corners*
0 $1 Rounding radius*
0 $2 $3 $4 $5 $6 $7 $8 $9 X,Y pos of 4 corners*
0 Add a 4 corners polygon primitive as box body*
4,1,4,$2,$3,$4,$5,$6,$7,$8,$9,$2,$3,0*
0 Add four circle primitives for the rounded corners*
1,1,$1+$1,$2,$3*
1,1,$1+$1,$4,$5*
1,1,$1+$1,$6,$7*
1,1,$1+$1,$8,$9*
0 Add four rect primitives between the rounded corners*
20,1,$1+$1,$2,$3,$4,$5,0*
20,1,$1+$1,$4,$5,$6,$7,0*
20,1,$1+$1,$6,$7,$8,$9,0*
20,1,$1+$1,$8,$9,$2,$3,0*%
G04 Aperture macros list end*
G04 #@! TA.AperFunction,ComponentPad*
%ADD10RoundRect,0.250001X-0.949999X-0.949999X0.949999X-0.949999X0.949999X0.949999X-0.949999X0.949999X0*%
G04 #@! TD*
G04 #@! TA.AperFunction,ComponentPad*
%ADD11C,2.400000*%
G04 #@! TD*
G04 #@! TA.AperFunction,ComponentPad*
%ADD12C,1.524000*%
G04 #@! TD*
G04 #@! TA.AperFunction,ViaPad*
%ADD13C,0.600000*%
G04 #@! TD*
G04 #@! TA.AperFunction,Conductor*
%ADD14C,0.200000*%
G04 #@! TD*
G04 APERTURE END LIST*
D10*
G04 #@! TO.P,J1,1,Pin_1*
G04 #@! TO.N,Net-(J1-Pin_1)*
X142000000Y-83500000D03*
D11*
G04 #@! TO.P,J1,2,Pin_2*
G04 #@! TO.N,Net-(J1-Pin_2)*
X145500000Y-83500000D03*
G04 #@! TD*
D10*
G04 #@! TO.P,SW1,1,1*
G04 #@! TO.N,GND*
X159500000Y-83500000D03*
D11*
G04 #@! TO.P,SW1,2,2*
G04 #@! TO.N,Net-(U1-GPIO26{slash}ADC0{slash}A0)*
X163000000Y-83500000D03*
G04 #@! TD*
D12*
G04 #@! TO.P,U1,1,GPIO26/ADC0/A0*
G04 #@! TO.N,Net-(U1-GPIO26{slash}ADC0{slash}A0)*
X145481000Y-59154500D03*
G04 #@! TO.P,U1,2,GPIO27/ADC1/A1*
G04 #@! TO.N,Net-(U1-GPIO27{slash}ADC1{slash}A1)*
X145481000Y-61694500D03*
G04 #@! TO.P,U1,3,GPIO28/ADC2/A2*
G04 #@! TO.N,unconnected-(U1-GPIO28{slash}ADC2{slash}A2-Pad3)*
X145481000Y-64234500D03*
G04 #@! TO.P,U1,4,GPIO29/ADC3/A3*
G04 #@! TO.N,unconnected-(U1-GPIO29{slash}ADC3{slash}A3-Pad4)_1*
X145481000Y-66774500D03*
G04 #@! TO.P,U1,5,GPIO6/SDA*
G04 #@! TO.N,unconnected-(U1-GPIO6{slash}SDA-Pad5)*
X145481000Y-69314500D03*
G04 #@! TO.P,U1,6,GPIO7/SCL*
G04 #@! TO.N,unconnected-(U1-GPIO7{slash}SCL-Pad6)_1*
X145481000Y-71854500D03*
G04 #@! TO.P,U1,7,GPIO0/TX*
G04 #@! TO.N,unconnected-(U1-GPIO0{slash}TX-Pad7)*
X145481000Y-74394500D03*
G04 #@! TO.P,U1,8,GPIO1/RX*
G04 #@! TO.N,unconnected-(U1-GPIO1{slash}RX-Pad8)_1*
X160721000Y-74394500D03*
G04 #@! TO.P,U1,9,GPIO2/SCK*
G04 #@! TO.N,unconnected-(U1-GPIO2{slash}SCK-Pad9)_1*
X160721000Y-71854500D03*
G04 #@! TO.P,U1,10,GPIO4/MISO*
G04 #@! TO.N,unconnected-(U1-GPIO4{slash}MISO-Pad10)*
X160721000Y-69314500D03*
G04 #@! TO.P,U1,11,GPIO3/MOSI*
G04 #@! TO.N,unconnected-(U1-GPIO3{slash}MOSI-Pad11)*
X160721000Y-66774500D03*
G04 #@! TO.P,U1,12,3V3*
G04 #@! TO.N,unconnected-(U1-3V3-Pad12)*
X160721000Y-64234500D03*
G04 #@! TO.P,U1,13,GND*
G04 #@! TO.N,GND*
X160721000Y-61694500D03*
G04 #@! TO.P,U1,14,VBUS*
G04 #@! TO.N,VBUS*
X160721000Y-59154500D03*
G04 #@! TD*
D13*
G04 #@! TO.N,Net-(J1-Pin_1)*
X153485900Y-83500000D03*
G04 #@! TO.N,Net-(U1-GPIO27{slash}ADC1{slash}A1)*
X149676200Y-83736100D03*
G04 #@! TD*
D14*
G04 #@! TO.N,Net-(J1-Pin_1)*
X142000000Y-83500000D02*
X143548400Y-81951600D01*
X143548400Y-81951600D02*
X151937500Y-81951600D01*
X151937500Y-81951600D02*
X153485900Y-83500000D01*
G04 #@! TO.N,Net-(U1-GPIO26{slash}ADC0{slash}A0)*
X145481000Y-59154500D02*
X159451000Y-73124500D01*
X163000000Y-75139400D02*
X163000000Y-83500000D01*
X159451000Y-73124500D02*
X160985100Y-73124500D01*
X160985100Y-73124500D02*
X163000000Y-75139400D01*
G04 #@! TO.N,Net-(U1-GPIO27{slash}ADC1{slash}A1)*
X145481000Y-61694500D02*
X154096900Y-70310400D01*
X154096900Y-70310400D02*
X154096900Y-83742900D01*
X153694300Y-84145500D02*
X150085600Y-84145500D01*
X150085600Y-84145500D02*
X149676200Y-83736100D01*
X154096900Y-83742900D02*
X153694300Y-84145500D01*
G04 #@! TD*
M02*
