G04 #@! TF.GenerationSoftware,KiCad,Pcbnew,9.0.8*
G04 #@! TF.CreationDate,2026-06-13T16:49:32+08:00*
G04 #@! TF.ProjectId,Untitled,556e7469-746c-4656-942e-6b696361645f,rev?*
G04 #@! TF.SameCoordinates,Original*
G04 #@! TF.FileFunction,Legend,Top*
G04 #@! TF.FilePolarity,Positive*
%FSLAX46Y46*%
G04 Gerber Fmt 4.6, Leading zero omitted, Abs format (unit mm)*
G04 Created by KiCad (PCBNEW 9.0.8) date 2026-06-13 16:49:32*
%MOMM*%
%LPD*%
G01*
G04 APERTURE LIST*
G04 Aperture macros list*
%AMRoundRect*
0 Rectangle with rounded corners*
0 $1 Rounding radius*
0 $2 $3 $4 $5 $6 $7 $8 $9 X,Y pos of 4 corners*
0 Add a 4 corners polygon primitive as box body*
4,1,4,$2,$3,$4,$5,$6,$7,$8,$9,$2,$3,0*
0 Add four circle primitives for the rounded corners*
1,1,$1+$1,$2,$3*
1,1,$1+$1,$4,$5*
1,1,$1+$1,$6,$7*
1,1,$1+$1,$8,$9*
0 Add four rect primitives between the rounded corners*
20,1,$1+$1,$2,$3,$4,$5,0*
20,1,$1+$1,$4,$5,$6,$7,0*
20,1,$1+$1,$6,$7,$8,$9,0*
20,1,$1+$1,$8,$9,$2,$3,0*%
G04 Aperture macros list end*
%ADD10C,0.100000*%
%ADD11C,0.150000*%
%ADD12C,0.101600*%
%ADD13C,0.120000*%
%ADD14C,0.127000*%
%ADD15C,0.200000*%
%ADD16C,0.504000*%
%ADD17RoundRect,0.250001X-0.949999X-0.949999X0.949999X-0.949999X0.949999X0.949999X-0.949999X0.949999X0*%
%ADD18C,2.400000*%
%ADD19RoundRect,0.140000X-0.140000X-0.170000X0.140000X-0.170000X0.140000X0.170000X-0.140000X0.170000X0*%
%ADD20RoundRect,0.085500X-0.751500X-0.256500X0.751500X-0.256500X0.751500X0.256500X-0.751500X0.256500X0*%
%ADD21RoundRect,0.102000X-0.712500X-0.880000X0.712500X-0.880000X0.712500X0.880000X-0.712500X0.880000X0*%
%ADD22RoundRect,0.250000X-0.250000X-0.475000X0.250000X-0.475000X0.250000X0.475000X-0.250000X0.475000X0*%
%ADD23RoundRect,0.152400X1.063600X0.609600X-1.063600X0.609600X-1.063600X-0.609600X1.063600X-0.609600X0*%
%ADD24C,1.524000*%
%ADD25RoundRect,0.152400X-1.063600X-0.609600X1.063600X-0.609600X1.063600X0.609600X-1.063600X0.609600X0*%
G04 APERTURE END LIST*
D10*
X142696265Y-89844800D02*
X142839122Y-89892419D01*
X142839122Y-89892419D02*
X143077217Y-89892419D01*
X143077217Y-89892419D02*
X143172455Y-89844800D01*
X143172455Y-89844800D02*
X143220074Y-89797180D01*
X143220074Y-89797180D02*
X143267693Y-89701942D01*
X143267693Y-89701942D02*
X143267693Y-89606704D01*
X143267693Y-89606704D02*
X143220074Y-89511466D01*
X143220074Y-89511466D02*
X143172455Y-89463847D01*
X143172455Y-89463847D02*
X143077217Y-89416228D01*
X143077217Y-89416228D02*
X142886741Y-89368609D01*
X142886741Y-89368609D02*
X142791503Y-89320990D01*
X142791503Y-89320990D02*
X142743884Y-89273371D01*
X142743884Y-89273371D02*
X142696265Y-89178133D01*
X142696265Y-89178133D02*
X142696265Y-89082895D01*
X142696265Y-89082895D02*
X142743884Y-88987657D01*
X142743884Y-88987657D02*
X142791503Y-88940038D01*
X142791503Y-88940038D02*
X142886741Y-88892419D01*
X142886741Y-88892419D02*
X143124836Y-88892419D01*
X143124836Y-88892419D02*
X143267693Y-88940038D01*
X143696265Y-89225752D02*
X143696265Y-90225752D01*
X143696265Y-89273371D02*
X143791503Y-89225752D01*
X143791503Y-89225752D02*
X143981979Y-89225752D01*
X143981979Y-89225752D02*
X144077217Y-89273371D01*
X144077217Y-89273371D02*
X144124836Y-89320990D01*
X144124836Y-89320990D02*
X144172455Y-89416228D01*
X144172455Y-89416228D02*
X144172455Y-89701942D01*
X144172455Y-89701942D02*
X144124836Y-89797180D01*
X144124836Y-89797180D02*
X144077217Y-89844800D01*
X144077217Y-89844800D02*
X143981979Y-89892419D01*
X143981979Y-89892419D02*
X143791503Y-89892419D01*
X143791503Y-89892419D02*
X143696265Y-89844800D01*
X144981979Y-89844800D02*
X144886741Y-89892419D01*
X144886741Y-89892419D02*
X144696265Y-89892419D01*
X144696265Y-89892419D02*
X144601027Y-89844800D01*
X144601027Y-89844800D02*
X144553408Y-89749561D01*
X144553408Y-89749561D02*
X144553408Y-89368609D01*
X144553408Y-89368609D02*
X144601027Y-89273371D01*
X144601027Y-89273371D02*
X144696265Y-89225752D01*
X144696265Y-89225752D02*
X144886741Y-89225752D01*
X144886741Y-89225752D02*
X144981979Y-89273371D01*
X144981979Y-89273371D02*
X145029598Y-89368609D01*
X145029598Y-89368609D02*
X145029598Y-89463847D01*
X145029598Y-89463847D02*
X144553408Y-89559085D01*
X145886741Y-89892419D02*
X145886741Y-89368609D01*
X145886741Y-89368609D02*
X145839122Y-89273371D01*
X145839122Y-89273371D02*
X145743884Y-89225752D01*
X145743884Y-89225752D02*
X145553408Y-89225752D01*
X145553408Y-89225752D02*
X145458170Y-89273371D01*
X145886741Y-89844800D02*
X145791503Y-89892419D01*
X145791503Y-89892419D02*
X145553408Y-89892419D01*
X145553408Y-89892419D02*
X145458170Y-89844800D01*
X145458170Y-89844800D02*
X145410551Y-89749561D01*
X145410551Y-89749561D02*
X145410551Y-89654323D01*
X145410551Y-89654323D02*
X145458170Y-89559085D01*
X145458170Y-89559085D02*
X145553408Y-89511466D01*
X145553408Y-89511466D02*
X145791503Y-89511466D01*
X145791503Y-89511466D02*
X145886741Y-89463847D01*
X146362932Y-89892419D02*
X146362932Y-88892419D01*
X146458170Y-89511466D02*
X146743884Y-89892419D01*
X146743884Y-89225752D02*
X146362932Y-89606704D01*
X147553408Y-89844800D02*
X147458170Y-89892419D01*
X147458170Y-89892419D02*
X147267694Y-89892419D01*
X147267694Y-89892419D02*
X147172456Y-89844800D01*
X147172456Y-89844800D02*
X147124837Y-89749561D01*
X147124837Y-89749561D02*
X147124837Y-89368609D01*
X147124837Y-89368609D02*
X147172456Y-89273371D01*
X147172456Y-89273371D02*
X147267694Y-89225752D01*
X147267694Y-89225752D02*
X147458170Y-89225752D01*
X147458170Y-89225752D02*
X147553408Y-89273371D01*
X147553408Y-89273371D02*
X147601027Y-89368609D01*
X147601027Y-89368609D02*
X147601027Y-89463847D01*
X147601027Y-89463847D02*
X147124837Y-89559085D01*
X148029599Y-89892419D02*
X148029599Y-89225752D01*
X148029599Y-89416228D02*
X148077218Y-89320990D01*
X148077218Y-89320990D02*
X148124837Y-89273371D01*
X148124837Y-89273371D02*
X148220075Y-89225752D01*
X148220075Y-89225752D02*
X148315313Y-89225752D01*
X160577217Y-89368609D02*
X160720074Y-89416228D01*
X160720074Y-89416228D02*
X160767693Y-89463847D01*
X160767693Y-89463847D02*
X160815312Y-89559085D01*
X160815312Y-89559085D02*
X160815312Y-89701942D01*
X160815312Y-89701942D02*
X160767693Y-89797180D01*
X160767693Y-89797180D02*
X160720074Y-89844800D01*
X160720074Y-89844800D02*
X160624836Y-89892419D01*
X160624836Y-89892419D02*
X160243884Y-89892419D01*
X160243884Y-89892419D02*
X160243884Y-88892419D01*
X160243884Y-88892419D02*
X160577217Y-88892419D01*
X160577217Y-88892419D02*
X160672455Y-88940038D01*
X160672455Y-88940038D02*
X160720074Y-88987657D01*
X160720074Y-88987657D02*
X160767693Y-89082895D01*
X160767693Y-89082895D02*
X160767693Y-89178133D01*
X160767693Y-89178133D02*
X160720074Y-89273371D01*
X160720074Y-89273371D02*
X160672455Y-89320990D01*
X160672455Y-89320990D02*
X160577217Y-89368609D01*
X160577217Y-89368609D02*
X160243884Y-89368609D01*
X161672455Y-89225752D02*
X161672455Y-89892419D01*
X161243884Y-89225752D02*
X161243884Y-89749561D01*
X161243884Y-89749561D02*
X161291503Y-89844800D01*
X161291503Y-89844800D02*
X161386741Y-89892419D01*
X161386741Y-89892419D02*
X161529598Y-89892419D01*
X161529598Y-89892419D02*
X161624836Y-89844800D01*
X161624836Y-89844800D02*
X161672455Y-89797180D01*
X162005789Y-89225752D02*
X162386741Y-89225752D01*
X162148646Y-88892419D02*
X162148646Y-89749561D01*
X162148646Y-89749561D02*
X162196265Y-89844800D01*
X162196265Y-89844800D02*
X162291503Y-89892419D01*
X162291503Y-89892419D02*
X162386741Y-89892419D01*
X162577218Y-89225752D02*
X162958170Y-89225752D01*
X162720075Y-88892419D02*
X162720075Y-89749561D01*
X162720075Y-89749561D02*
X162767694Y-89844800D01*
X162767694Y-89844800D02*
X162862932Y-89892419D01*
X162862932Y-89892419D02*
X162958170Y-89892419D01*
X163434361Y-89892419D02*
X163339123Y-89844800D01*
X163339123Y-89844800D02*
X163291504Y-89797180D01*
X163291504Y-89797180D02*
X163243885Y-89701942D01*
X163243885Y-89701942D02*
X163243885Y-89416228D01*
X163243885Y-89416228D02*
X163291504Y-89320990D01*
X163291504Y-89320990D02*
X163339123Y-89273371D01*
X163339123Y-89273371D02*
X163434361Y-89225752D01*
X163434361Y-89225752D02*
X163577218Y-89225752D01*
X163577218Y-89225752D02*
X163672456Y-89273371D01*
X163672456Y-89273371D02*
X163720075Y-89320990D01*
X163720075Y-89320990D02*
X163767694Y-89416228D01*
X163767694Y-89416228D02*
X163767694Y-89701942D01*
X163767694Y-89701942D02*
X163720075Y-89797180D01*
X163720075Y-89797180D02*
X163672456Y-89844800D01*
X163672456Y-89844800D02*
X163577218Y-89892419D01*
X163577218Y-89892419D02*
X163434361Y-89892419D01*
X164196266Y-89225752D02*
X164196266Y-89892419D01*
X164196266Y-89320990D02*
X164243885Y-89273371D01*
X164243885Y-89273371D02*
X164339123Y-89225752D01*
X164339123Y-89225752D02*
X164481980Y-89225752D01*
X164481980Y-89225752D02*
X164577218Y-89273371D01*
X164577218Y-89273371D02*
X164624837Y-89368609D01*
X164624837Y-89368609D02*
X164624837Y-89892419D01*
D11*
X143416666Y-78734819D02*
X143416666Y-79449104D01*
X143416666Y-79449104D02*
X143369047Y-79591961D01*
X143369047Y-79591961D02*
X143273809Y-79687200D01*
X143273809Y-79687200D02*
X143130952Y-79734819D01*
X143130952Y-79734819D02*
X143035714Y-79734819D01*
X144416666Y-79734819D02*
X143845238Y-79734819D01*
X144130952Y-79734819D02*
X144130952Y-78734819D01*
X144130952Y-78734819D02*
X144035714Y-78877676D01*
X144035714Y-78877676D02*
X143940476Y-78972914D01*
X143940476Y-78972914D02*
X143845238Y-79020533D01*
X159916667Y-79687200D02*
X160059524Y-79734819D01*
X160059524Y-79734819D02*
X160297619Y-79734819D01*
X160297619Y-79734819D02*
X160392857Y-79687200D01*
X160392857Y-79687200D02*
X160440476Y-79639580D01*
X160440476Y-79639580D02*
X160488095Y-79544342D01*
X160488095Y-79544342D02*
X160488095Y-79449104D01*
X160488095Y-79449104D02*
X160440476Y-79353866D01*
X160440476Y-79353866D02*
X160392857Y-79306247D01*
X160392857Y-79306247D02*
X160297619Y-79258628D01*
X160297619Y-79258628D02*
X160107143Y-79211009D01*
X160107143Y-79211009D02*
X160011905Y-79163390D01*
X160011905Y-79163390D02*
X159964286Y-79115771D01*
X159964286Y-79115771D02*
X159916667Y-79020533D01*
X159916667Y-79020533D02*
X159916667Y-78925295D01*
X159916667Y-78925295D02*
X159964286Y-78830057D01*
X159964286Y-78830057D02*
X160011905Y-78782438D01*
X160011905Y-78782438D02*
X160107143Y-78734819D01*
X160107143Y-78734819D02*
X160345238Y-78734819D01*
X160345238Y-78734819D02*
X160488095Y-78782438D01*
X160821429Y-78734819D02*
X161059524Y-79734819D01*
X161059524Y-79734819D02*
X161250000Y-79020533D01*
X161250000Y-79020533D02*
X161440476Y-79734819D01*
X161440476Y-79734819D02*
X161678572Y-78734819D01*
X162583333Y-79734819D02*
X162011905Y-79734819D01*
X162297619Y-79734819D02*
X162297619Y-78734819D01*
X162297619Y-78734819D02*
X162202381Y-78877676D01*
X162202381Y-78877676D02*
X162107143Y-78972914D01*
X162107143Y-78972914D02*
X162011905Y-79020533D01*
X154293333Y-87279580D02*
X154245714Y-87327200D01*
X154245714Y-87327200D02*
X154102857Y-87374819D01*
X154102857Y-87374819D02*
X154007619Y-87374819D01*
X154007619Y-87374819D02*
X153864762Y-87327200D01*
X153864762Y-87327200D02*
X153769524Y-87231961D01*
X153769524Y-87231961D02*
X153721905Y-87136723D01*
X153721905Y-87136723D02*
X153674286Y-86946247D01*
X153674286Y-86946247D02*
X153674286Y-86803390D01*
X153674286Y-86803390D02*
X153721905Y-86612914D01*
X153721905Y-86612914D02*
X153769524Y-86517676D01*
X153769524Y-86517676D02*
X153864762Y-86422438D01*
X153864762Y-86422438D02*
X154007619Y-86374819D01*
X154007619Y-86374819D02*
X154102857Y-86374819D01*
X154102857Y-86374819D02*
X154245714Y-86422438D01*
X154245714Y-86422438D02*
X154293333Y-86470057D01*
X154674286Y-86470057D02*
X154721905Y-86422438D01*
X154721905Y-86422438D02*
X154817143Y-86374819D01*
X154817143Y-86374819D02*
X155055238Y-86374819D01*
X155055238Y-86374819D02*
X155150476Y-86422438D01*
X155150476Y-86422438D02*
X155198095Y-86470057D01*
X155198095Y-86470057D02*
X155245714Y-86565295D01*
X155245714Y-86565295D02*
X155245714Y-86660533D01*
X155245714Y-86660533D02*
X155198095Y-86803390D01*
X155198095Y-86803390D02*
X154626667Y-87374819D01*
X154626667Y-87374819D02*
X155245714Y-87374819D01*
X151893095Y-79092819D02*
X151893095Y-79902342D01*
X151893095Y-79902342D02*
X151940714Y-79997580D01*
X151940714Y-79997580D02*
X151988333Y-80045200D01*
X151988333Y-80045200D02*
X152083571Y-80092819D01*
X152083571Y-80092819D02*
X152274047Y-80092819D01*
X152274047Y-80092819D02*
X152369285Y-80045200D01*
X152369285Y-80045200D02*
X152416904Y-79997580D01*
X152416904Y-79997580D02*
X152464523Y-79902342D01*
X152464523Y-79902342D02*
X152464523Y-79092819D01*
X152893095Y-79188057D02*
X152940714Y-79140438D01*
X152940714Y-79140438D02*
X153035952Y-79092819D01*
X153035952Y-79092819D02*
X153274047Y-79092819D01*
X153274047Y-79092819D02*
X153369285Y-79140438D01*
X153369285Y-79140438D02*
X153416904Y-79188057D01*
X153416904Y-79188057D02*
X153464523Y-79283295D01*
X153464523Y-79283295D02*
X153464523Y-79378533D01*
X153464523Y-79378533D02*
X153416904Y-79521390D01*
X153416904Y-79521390D02*
X152845476Y-80092819D01*
X152845476Y-80092819D02*
X153464523Y-80092819D01*
X155083333Y-84269580D02*
X155035714Y-84317200D01*
X155035714Y-84317200D02*
X154892857Y-84364819D01*
X154892857Y-84364819D02*
X154797619Y-84364819D01*
X154797619Y-84364819D02*
X154654762Y-84317200D01*
X154654762Y-84317200D02*
X154559524Y-84221961D01*
X154559524Y-84221961D02*
X154511905Y-84126723D01*
X154511905Y-84126723D02*
X154464286Y-83936247D01*
X154464286Y-83936247D02*
X154464286Y-83793390D01*
X154464286Y-83793390D02*
X154511905Y-83602914D01*
X154511905Y-83602914D02*
X154559524Y-83507676D01*
X154559524Y-83507676D02*
X154654762Y-83412438D01*
X154654762Y-83412438D02*
X154797619Y-83364819D01*
X154797619Y-83364819D02*
X154892857Y-83364819D01*
X154892857Y-83364819D02*
X155035714Y-83412438D01*
X155035714Y-83412438D02*
X155083333Y-83460057D01*
X156035714Y-84364819D02*
X155464286Y-84364819D01*
X155750000Y-84364819D02*
X155750000Y-83364819D01*
X155750000Y-83364819D02*
X155654762Y-83507676D01*
X155654762Y-83507676D02*
X155559524Y-83602914D01*
X155559524Y-83602914D02*
X155464286Y-83650533D01*
D12*
X144117190Y-54427979D02*
X144117190Y-54942026D01*
X144117190Y-54942026D02*
X144147428Y-55002502D01*
X144147428Y-55002502D02*
X144177666Y-55032741D01*
X144177666Y-55032741D02*
X144238142Y-55062979D01*
X144238142Y-55062979D02*
X144359095Y-55062979D01*
X144359095Y-55062979D02*
X144419571Y-55032741D01*
X144419571Y-55032741D02*
X144449809Y-55002502D01*
X144449809Y-55002502D02*
X144480047Y-54942026D01*
X144480047Y-54942026D02*
X144480047Y-54427979D01*
X145115047Y-55062979D02*
X144752190Y-55062979D01*
X144933618Y-55062979D02*
X144933618Y-54427979D01*
X144933618Y-54427979D02*
X144873142Y-54518693D01*
X144873142Y-54518693D02*
X144812666Y-54579169D01*
X144812666Y-54579169D02*
X144752190Y-54609407D01*
D13*
G04 #@! TO.C,J1*
X140130000Y-80280000D02*
X147370000Y-80280000D01*
X140130000Y-86500000D02*
X147370000Y-86500000D01*
X140130000Y-87600000D02*
X147370000Y-87600000D01*
X140130000Y-88120000D02*
X140130000Y-80280000D01*
X141700000Y-88120000D02*
X140130000Y-88120000D01*
X147370000Y-80280000D02*
X147370000Y-88120000D01*
X147370000Y-88120000D02*
X142300000Y-88120000D01*
X142440000Y-88730000D02*
X141560000Y-88730000D01*
X142000000Y-88120000D01*
X142440000Y-88730000D01*
G36*
X142440000Y-88730000D02*
G01*
X141560000Y-88730000D01*
X142000000Y-88120000D01*
X142440000Y-88730000D01*
G37*
G04 #@! TO.C,SW1*
X157630000Y-80280000D02*
X164870000Y-80280000D01*
X157630000Y-86500000D02*
X164870000Y-86500000D01*
X157630000Y-87600000D02*
X164870000Y-87600000D01*
X157630000Y-88120000D02*
X157630000Y-80280000D01*
X159200000Y-88120000D02*
X157630000Y-88120000D01*
X164870000Y-80280000D02*
X164870000Y-88120000D01*
X164870000Y-88120000D02*
X159800000Y-88120000D01*
X159940000Y-88730000D02*
X159060000Y-88730000D01*
X159500000Y-88120000D01*
X159940000Y-88730000D01*
G36*
X159940000Y-88730000D02*
G01*
X159060000Y-88730000D01*
X159500000Y-88120000D01*
X159940000Y-88730000D01*
G37*
G04 #@! TO.C,C2*
X154352164Y-87720000D02*
X154567836Y-87720000D01*
X154352164Y-88440000D02*
X154567836Y-88440000D01*
D14*
G04 #@! TO.C,U2*
X151000000Y-80465000D02*
X154000000Y-80465000D01*
X151000000Y-83535000D02*
X154000000Y-83535000D01*
D15*
X148980000Y-80545000D02*
G75*
G02*
X148780000Y-80545000I-100000J0D01*
G01*
X148780000Y-80545000D02*
G75*
G02*
X148980000Y-80545000I100000J0D01*
G01*
D13*
G04 #@! TO.C,C1*
X154988748Y-84855000D02*
X155511252Y-84855000D01*
X154988748Y-86325000D02*
X155511252Y-86325000D01*
D14*
G04 #@! TO.C,U1*
X144211000Y-75283500D02*
X144211000Y-58138500D01*
X146116000Y-77188500D02*
X160086000Y-77188500D01*
X148606000Y-56233500D02*
X148609728Y-55323228D01*
X149109728Y-54823500D02*
X157105000Y-54823500D01*
X157605000Y-55323500D02*
X157605000Y-56233500D01*
D10*
X160086000Y-56233500D02*
X146116000Y-56233500D01*
D14*
X160086000Y-56233500D02*
X146116000Y-56233500D01*
X161991000Y-75283500D02*
X161991000Y-58138500D01*
X144211000Y-58138500D02*
G75*
G02*
X146116000Y-56233500I1905001J-1D01*
G01*
X146116000Y-77188500D02*
G75*
G02*
X144211000Y-75283500I1J1905001D01*
G01*
X148609728Y-55323228D02*
G75*
G02*
X149109728Y-54823501I500018J-291D01*
G01*
X157105000Y-54823500D02*
G75*
G02*
X157605000Y-55323500I0J-500000D01*
G01*
X160086000Y-56233500D02*
G75*
G02*
X161991000Y-58138500I0J-1905000D01*
G01*
X161991000Y-75283500D02*
G75*
G02*
X160086000Y-77188500I-1905000J0D01*
G01*
D16*
X144403000Y-56474500D02*
G75*
G02*
X143899000Y-56474500I-252000J0D01*
G01*
X143899000Y-56474500D02*
G75*
G02*
X144403000Y-56474500I252000J0D01*
G01*
X145546000Y-57354500D02*
G75*
G02*
X145042000Y-57354500I-252000J0D01*
G01*
X145042000Y-57354500D02*
G75*
G02*
X145546000Y-57354500I252000J0D01*
G01*
G04 #@! TD*
%LPC*%
D17*
G04 #@! TO.C,J1*
X142000000Y-83500000D03*
D18*
X145500000Y-83500000D03*
G04 #@! TD*
D17*
G04 #@! TO.C,SW1*
X159500000Y-83500000D03*
D18*
X163000000Y-83500000D03*
G04 #@! TD*
D19*
G04 #@! TO.C,C2*
X153980000Y-88080000D03*
X154940000Y-88080000D03*
G04 #@! TD*
D20*
G04 #@! TO.C,U2*
X150350000Y-81025000D03*
X150350000Y-81675000D03*
X150350000Y-82325000D03*
X150350000Y-82975000D03*
X154650000Y-82975000D03*
X154650000Y-82325000D03*
X154650000Y-81675000D03*
X154650000Y-81025000D03*
D21*
X152500000Y-82000000D03*
G04 #@! TD*
D22*
G04 #@! TO.C,C1*
X154300000Y-85590000D03*
X156200000Y-85590000D03*
G04 #@! TD*
D23*
G04 #@! TO.C,U1*
X144646000Y-59154500D03*
D24*
X145481000Y-59154500D03*
D23*
X144646000Y-61694500D03*
D24*
X145481000Y-61694500D03*
D23*
X144646000Y-64234500D03*
D24*
X145481000Y-64234500D03*
D23*
X144646000Y-66774500D03*
D24*
X145481000Y-66774500D03*
D23*
X144646000Y-69314500D03*
D24*
X145481000Y-69314500D03*
D23*
X144646000Y-71854500D03*
D24*
X145481000Y-71854500D03*
D23*
X144646000Y-74394500D03*
D24*
X145481000Y-74394500D03*
X160721000Y-74394500D03*
D25*
X161556000Y-74394500D03*
D24*
X160721000Y-71854500D03*
D25*
X161556000Y-71854500D03*
D24*
X160721000Y-69314500D03*
D25*
X161556000Y-69314500D03*
D24*
X160721000Y-66774500D03*
D25*
X161556000Y-66774500D03*
D24*
X160721000Y-64234500D03*
D25*
X161556000Y-64234500D03*
D24*
X160721000Y-61694500D03*
D25*
X161556000Y-61694500D03*
D24*
X160721000Y-59154500D03*
D25*
X161556000Y-59154500D03*
G04 #@! TD*
%LPD*%
M02*
